<?xml version="1.0" standalone="no"?><svg xmlns="http://www.w3.org/2000/svg" viewBox="0 0 1440 320"><path fill="#0099ff" fill-opacity="1" d="M0,96L24,101.3C48,107,96,117,144,154.7C192,192,240,256,288,245.3C336,235,384,149,432,138.7C480,128,528,192,576,197.3C624,203,672,149,720,112C768,75,816,53,864,58.7C912,64,960,96,1008,138.7C1056,181,1104,235,1152,234.7C1200,235,1248,181,1296,170.7C1344,160,1392,192,1416,208L1440,224L1440,320L1416,320C1392,320,1344,320,1296,320C1248,320,1200,320,1152,320C1104,320,1056,320,1008,320C960,320,912,320,864,320C816,320,768,320,720,320C672,320,624,320,576,320C528,320,480,320,432,320C384,320,336,320,288,320C240,320,192,320,144,320C96,320,48,320,24,320L0,320Z"></path></svg>